# xmcd CD database file
#
# Track frame offsets:
#	150
#	17930
#	36846
#	53598
#	71955
#	89395
#	104456
#	119626
#	136259
#	153923
#	168715
#	182156
#	199593
#	212196
#	227479
#	243194
#	259848
#	275225
#
# Disc length: 3886 seconds
#
# Revision: 1
# Processed by: cddbd v1.5.2PL0 Copyright (c) Steve Scherf et al.
# Submitted via: CDex 1.51
#
DISCID=0c0f2c12
DTITLE=Various Artist - RC96
DYEAR=2006
DGENRE=Country
TTITLE0=Phil Vassar - Last Day Of My Life
TTITLE1=George Strait - The Seashores Of Old Mexico
TTITLE2=Carrie Underwood - Don't Forget To Remember Me
TTITLE3=Little Big Town - Bring It On Home (Album)
TTITLE4=Craig Hand - Direct Connect
TTITLE5=Kenny Chesney - Summertime
TTITLE6=Toby Keith - A Little Too Late (Radio Edit)
TTITLE7=Brad Paisley - The World (Radio Edit)
TTITLE8=Keith Anderson - Everytime I Hear Your Name (Radio Edit)
TTITLE9=Hank Williams Jr. w/ Gretchen Wilson, Big and Rich - That's How They Do It In Dixie
TTITLE10=Megan Mullins - Ain't What It Used To Be
TTITLE11=Eric Church - How 'Bout You
TTITLE12=Billy Currington - Why, Why, Why
TTITLE13=Kenny Rogers - I Can't Unlove You
TTITLE14=Gary Allan - Life Ain't Always Beautiful
TTITLE15=Rascal Flatts - Me And My Gang
TTITLE16=Julie Roberts - Men and Mascara
TTITLE17=Rodney Atkins - If You're Going Through Hell (Before The Devil Even Knows)
EXTD=YEAR: 2006
EXTT0=
EXTT1=
EXTT2=
EXTT3=
EXTT4=
EXTT5=
EXTT6=
EXTT7=
EXTT8=
EXTT9=
EXTT10=
EXTT11=
EXTT12=
EXTT13=
EXTT14=
EXTT15=
EXTT16=
EXTT17=
PLAYORDER=
